<?xml version="1.0" standalone="no"?><!DOCTYPE svg PUBLIC "-//W3C//DTD SVG 1.1//EN" "http://www.w3.org/Graphics/SVG/1.1/DTD/svg11.dtd"><svg t="1534748405545" class="icon" style="" viewBox="0 0 1024 1024" version="1.1" xmlns="http://www.w3.org/2000/svg" p-id="3058" xmlns:xlink="http://www.w3.org/1999/xlink" width="200" height="200"><defs><style type="text/css"></style></defs><path d="M1018.342541 33.944751c-5.657459-5.657459-16.972376 5.657459-28.287292 0 0 0-5.657459 0-5.657459-5.657458-5.657459 5.657459-16.972376 5.657459-22.629834 5.657458-5.657459 0-16.972376-5.657459-22.629834-5.657458-5.657459 0-5.657459-5.657459-5.657459-5.657459-11.314917 5.657459-16.972376 11.314917-28.287293 0 0 0-5.657459 0-5.657458-5.657458V11.314917c-5.657459 0 0 11.314917 0 11.314917-11.314917 11.314917-39.60221 0-50.917127 0H831.646409c-11.314917 0-22.629834-5.657459-33.944752-5.657458-28.287293 0-62.232044-5.657459-96.176795 0-5.657459 11.314917 0 28.287293-5.657459 33.944751H678.895028c-5.657459 0-22.629834 0-28.287293 5.657459-5.657459-5.657459-5.657459-11.314917-5.657459-16.972376l-16.972375-16.972376c-11.314917 0-22.629834 5.657459-28.287293 0V16.972376h11.314917c-11.314917-11.314917-50.917127 5.657459-56.574586-16.972376-16.972376 5.657459-28.287293 11.314917-33.944751 16.972376-11.314917 0-45.259669-5.657459-50.917127-11.314917-11.314917 16.972376-22.629834 5.657459-39.60221 5.657458 0 5.657459-5.657459 11.314917-5.657459 11.314917-5.657459 0 0-5.657459 0-11.314917-11.314917 16.972376-11.314917 22.629834-28.287293 22.629834 0 5.657459 0 11.314917-5.657458 11.314918 0 0-16.972376-5.657459-22.629834-5.657459-28.287293 0-56.574586 11.314917-73.546962 5.657459C282.872928 39.60221 277.21547 33.944751 271.558011 28.287293c-11.314917 5.657459-16.972376 11.314917-28.287293 5.657458-5.657459 0-5.657459 0-11.314917-5.657458-5.657459 5.657459-11.314917 5.657459-16.972376 5.657458-11.314917 0-16.972376-5.657459-28.287292 0-11.314917 0-11.314917 5.657459-16.972376 5.657459-5.657459 0-5.657459-5.657459-5.657459-5.657459-5.657459 0-11.314917 0-16.972375 5.657459-5.657459 0-5.657459-5.657459-5.657459-5.657459l-5.657458 5.657459C124.464088 28.287293 107.491713 28.287293 96.176796 28.287293L90.519337 22.629834C73.546961 33.944751 39.60221 45.259669 16.972376 28.287293c-5.657459 0-11.314917 45.259669-5.657459 50.917127l5.657459 5.657458v84.861879c-5.657459 22.629834-5.657459 50.917127-5.657459 67.889503H5.657459v22.629834h11.314917c5.657459 5.657459 0 33.944751 0 45.259668v16.972376c0 5.657459-5.657459 0-11.314917 0v5.657459s5.657459 0 11.314917 5.657458v39.60221c0 5.657459 5.657459 11.314917 5.657458 22.629834 0 5.657459 5.657459 16.972376 5.657459 22.629835 0 5.657459-5.657459 11.314917-5.657459 16.972375-5.657459 22.629834 5.657459 45.259669 16.972376 50.917127 0 11.314917-5.657459 28.287293 0 39.60221 0 0 0 5.657459-5.657459 5.657459s-5.657459-5.657459-11.314917-5.657459c0 0 0 5.657459 5.657459 5.657459v5.657459c-5.657459 0-5.657459 0-11.314917-5.657459-5.657459 22.629834-5.657459 62.232044 0 90.519337v28.287293c0 5.657459 16.972376 5.657459 22.629834 5.657458v22.629835c0 16.972376 0 39.60221-5.657459 56.574585v33.944752H22.629834c-5.657459 16.972376-5.657459 39.60221-5.657458 62.232044v22.629834c5.657459 16.972376 5.657459 45.259669 0 62.232044 0 16.972376 0 33.944751-5.657459 50.917127 5.657459 5.657459 16.972376 0 28.287293 5.657459 0 5.657459 0 11.314917 5.657459 16.972376 5.657459-5.657459 5.657459-11.314917 16.972375-11.314918v0h5.657459v5.657459c11.314917 0 16.972376-5.657459 33.944751 0v-11.314917c5.657459 0 11.314917 5.657459 16.972376 5.657458h28.287293v-5.657458c0-5.657459 5.657459-5.657459 11.314917-5.657459l-5.657459 5.657459c0 5.657459 11.314917 5.657459 16.972376 5.657458V967.425414h11.314917v5.657459h5.657459v-11.314917c11.314917 0 16.972376 5.657459 11.314917 16.972375 5.657459 0 5.657459 0 5.657458-5.657458 11.314917 0 16.972376 0 22.629835-11.314917 0 0 5.657459 5.657459 5.657458 11.314917h5.657459c0-5.657459 0-5.657459 5.657458-5.657459 5.657459-5.657459 11.314917 5.657459 11.314917 11.314917 11.314917 0 11.314917-5.657459 22.629835-11.314917 5.657459 0 5.657459 0 5.657458 5.657459V967.425414h16.972376c5.657459-5.657459 5.657459-11.314917 11.314917-11.314917s5.657459 5.657459 5.657459 11.314917c0 0 5.657459-5.657459 5.657458-11.314917 0 0 5.657459 0 5.657459-5.657458 11.314917 0 11.314917 11.314917 16.972375 16.972375h5.657459s5.657459-5.657459 5.657459-11.314917c5.657459 0 5.657459 5.657459 11.314917 5.657459 5.657459 5.657459 33.944751 0 33.944751-5.657459v-5.657458l5.657459-5.657459v5.657459h5.657458s0 5.657459 5.657459 5.657458c5.657459 5.657459 11.314917 16.972376 16.972375 22.629834 0 5.657459 0 5.657459 5.657459 5.657459h22.629834l-5.657458-5.657459c11.314917-5.657459 39.60221-5.657459 56.574585 0 5.657459 0 5.657459 5.657459 11.314917 5.657459s5.657459-5.657459 5.657459-11.314917c11.314917 0 11.314917 16.972376 22.629834 11.314917h16.972376s0-5.657459 5.657458-5.657459c0-5.657459 11.314917-5.657459 16.972376-5.657458 16.972376-5.657459 39.60221 0 62.232044 0h22.629835v5.657458c-5.657459 5.657459-16.972376 0-22.629835 0 5.657459 5.657459 28.287293 0 33.944752-5.657458 5.657459 0 5.657459-5.657459 5.657458-5.657459h-11.314917v-5.657458c5.657459-5.657459 11.314917-5.657459 16.972376-5.657459v11.314917h5.657458c0-5.657459 0-5.657459 5.657459-11.314917l5.657459 5.657459c5.657459 5.657459 16.972376 0 22.629834 0h28.287293c5.657459-5.657459 11.314917-11.314917 22.629834-11.314917 5.657459 5.657459 22.629834 11.314917 39.60221 11.314917h16.972376c16.972376 5.657459 33.944751 16.972376 62.232044 11.314917 5.657459 0 11.314917 0 16.972375-5.657459 5.657459 0 11.314917-5.657459 16.972376-5.657458l5.657459 5.657458s5.657459-5.657459 5.657458-11.314917h-22.629834c0-5.657459 5.657459-5.657459 11.314917-5.657458 22.629834-11.314917 50.917127 0 73.546961 5.657458V543.116022 424.309392v-16.972375c0-5.657459-5.657459-16.972376-5.657458-22.629835 0 16.972376 5.657459 16.972376 5.657458 11.314917V294.187845 101.834254 33.944751zM11.314917 260.243094c-5.657459 0-5.657459 0 0 0-5.657459 0-5.657459-5.657459 0 0-5.657459-5.657459-5.657459-5.657459-5.657458-11.314917h5.657458v11.314917zM73.546961 45.259669h-5.657458V39.60221h5.657458c5.657459 0 5.657459 0 0 5.657459 5.657459 0 5.657459 0 0 0zM905.19337 39.60221s5.657459 0 0 0h5.657459v5.657459H905.19337V39.60221zM842.961326 33.944751c5.657459 0 16.972376 5.657459 22.629834 5.657459-5.657459 5.657459-16.972376 0-22.629834 0V33.944751z m-16.972376-5.657458s0 5.657459 0 0c5.657459 5.657459 0 5.657459 0 11.314917h-5.657458c-5.657459-5.657459 0-5.657459 5.657458-11.314917z m-22.629834 5.657458c5.657459 0 5.657459 0 5.657459 5.657459v5.657459h-5.657459V33.944751zM718.497238 28.287293h5.657458v5.657458s-5.657459 0-5.657458-5.657458c0 5.657459 0 5.657459 0 0z m-56.574586 192.353591c28.287293-11.314917 62.232044-16.972376 90.519337-22.629834 5.657459 0 16.972376-5.657459 22.629834-5.657459 39.60221 0 50.917127 11.314917 67.889503 28.287293 5.657459 0 11.314917 5.657459 16.972376 11.314917 5.657459 11.314917-5.657459 39.60221-5.657459 45.259669 0 22.629834-5.657459 39.60221-11.314917 62.232044 0 11.314917-5.657459 28.287293-5.657459 39.60221-11.314917 0-16.972376-11.314917-28.287292-16.972376-11.314917-5.657459-16.972376-11.314917-22.629835-16.972376-33.944751-22.629834-73.546961-50.917127-107.491712-79.20442-11.314917-5.657459-45.259669-28.287293-50.917127-39.602209 5.657459-5.657459 22.629834 0 33.944751-5.657459zM560.088398 22.629834h5.657458c0 5.657459 0 5.657459-5.657458 0 0 5.657459 0 5.657459 0 0 0 5.657459 0 5.657459 0 0 0 5.657459 0 5.657459 0 0z m-45.259669 0c5.657459 0 11.314917 0 11.314917 5.657459v5.657458c-5.657459 5.657459-11.314917 0-16.972375 0 0-5.657459 0-11.314917 5.657458-11.314917-5.657459 0-5.657459 0 0 0z m-28.287293 0l5.657459 5.657459h-5.657459V22.629834c-5.657459 0 0 0 0 0zM452.596685 22.629834s5.657459 0 0 0c5.657459 0 5.657459 5.657459 0 0l5.657459 5.657459H452.596685C446.939227 22.629834 452.596685 22.629834 452.596685 22.629834z m-39.60221 28.287293c5.657459 0 5.657459 0 0 0v0zM209.325967 45.259669c5.657459 0 5.657459 0 0 0 5.657459 0 11.314917 0 5.657458 5.657458 0 0-5.657459 0-5.657458-5.657458 0 5.657459 0 0 0 0z m-45.259669 0c5.657459 0 5.657459 0 0 0H169.723757v5.657458h-5.657459c5.657459 0 5.657459 0 0-5.657458 0 5.657459 0 5.657459 0 0zM96.176796 45.259669c0-5.657459 0-5.657459 0 0 0-5.657459 0-5.657459 0 0 5.657459-5.657459 11.314917-5.657459 16.972375 0h-16.972375z m316.817679 769.414364l-118.80663 33.944752c-11.314917 5.657459-39.60221 11.314917-56.574585 5.657458-16.972376-5.657459-28.287293-16.972376-39.60221-28.287293-11.314917-5.657459-28.287293-16.972376-39.60221-28.287293-5.657459-5.657459-16.972376-11.314917-22.629834-22.629834-5.657459-16.972376 11.314917-33.944751 16.972375-39.60221 11.314917-28.287293 22.629834-56.574586 39.60221-84.861878 5.657459-11.314917 11.314917-28.287293 16.972376-39.60221 11.314917 0 39.60221 33.944751 50.917127 39.60221 39.60221 33.944751 73.546961 67.889503 113.149171 101.834254 0 22.629834 33.944751 45.259669 39.60221 62.232044z m164.066298 198.01105c-5.657459 5.657459-22.629834 5.657459-16.972375-5.657459 5.657459 0 11.314917 0 16.972375 5.657459 0-5.657459 0-5.657459 0 0 0-5.657459 0 0 0 0z m350.762431-305.502763c-5.657459 16.972376-11.314917 28.287293-16.972375 45.259669-11.314917 28.287293-16.972376 56.574586-28.287293 84.861878-5.657459 5.657459-11.314917 5.657459-11.314917 11.314918-45.259669 0-101.834254 5.657459-135.779006-11.314918-16.972376-5.657459-33.944751-33.944751-45.259668-50.917127l-16.972376-16.972375c-16.972376-22.629834-39.60221-39.60221-62.232044-56.574586-11.314917-11.314917-28.287293-28.287293-39.60221-45.259669l-22.629834-22.629834c-11.314917-16.972376-22.629834-28.287293-39.60221-39.60221-5.657459-5.657459-5.657459-11.314917-11.314917-11.314917-5.657459-11.314917-16.972376-22.629834-28.287293-33.944751L424.309392 514.828729c-5.657459 0-11.314917-5.657459-11.314917-11.314917-11.314917-5.657459-16.972376-16.972376-28.287293-22.629834 0-5.657459-5.657459-5.657459-11.314917-11.314917C339.447514 441.281768 305.502762 401.679558 277.21547 367.734807l-45.259669-45.259669-67.889503-67.889503c-11.314917-5.657459-45.259669-33.944751-45.259668-50.917127 16.972376 0 28.287293-5.657459 39.60221-11.314917 5.657459 0 16.972376-5.657459 22.629834-5.657458 45.259669 0 56.574586 16.972376 84.861878 39.60221 33.944751 16.972376 67.889503 39.60221 101.834255 62.232044 33.944751 22.629834 67.889503 39.60221 96.176795 62.232044 16.972376 11.314917 28.287293 22.629834 45.259669 28.287293 22.629834 11.314917 39.60221 28.287293 56.574585 33.944751 5.657459 5.657459 16.972376 5.657459 22.629835 11.314917 11.314917 11.314917 28.287293 16.972376 39.60221 28.287293 22.629834 11.314917 39.60221 28.287293 62.232044 39.60221 28.287293 16.972376 56.574586 39.60221 84.861878 56.574586 33.944751 22.629834 73.546961 45.259669 107.491713 67.889502 16.972376 11.314917 33.944751 16.972376 45.259668 28.287293 11.314917 16.972376 5.657459 45.259669 0 62.232044z" fill="#30A8FE" p-id="3059"></path><path d="M656.265193 33.944751c5.657459-5.657459 5.657459-16.972376 5.657459-22.629834 0-5.657459-11.314917 0-16.972376 0h-5.657458c0 5.657459 11.314917 16.972376 16.972375 22.629834zM5.657459 39.60221C5.657459 33.944751 5.657459 33.944751 5.657459 39.60221 5.657459 33.944751 5.657459 33.944751 5.657459 39.60221 0 33.944751 0 33.944751 5.657459 39.60221zM5.657459 79.20442C11.314917 67.889503 11.314917 56.574586 5.657459 50.917127H0V62.232044c5.657459 5.657459 0 16.972376 5.657459 16.972376zM5.657459 107.491713c-5.657459 0-5.657459 5.657459-5.657459 5.657458 5.657459 0 5.657459-5.657459 5.657459-5.657458zM0 152.751381v39.60221c5.657459 0 5.657459-28.287293 0-39.60221 5.657459 0 5.657459 0 0 0zM5.657459 248.928177c0 5.657459 0 5.657459 0 0v11.314917c5.657459-5.657459 5.657459-5.657459 0-11.314917 0 5.657459 0 0 0 0zM0 299.845304c5.657459 0 5.657459 0 0 0 5.657459-5.657459 5.657459-11.314917 5.657459-16.972376H0c0 5.657459 5.657459 11.314917 0 16.972376zM5.657459 316.81768c0-5.657459 0-5.657459 0 0v-5.657459s-5.657459 0 0 5.657459c-5.657459 0-5.657459 0 0 0zM5.657459 350.762431zM5.657459 390.364641s0 5.657459 0 0c-5.657459 5.657459 0 5.657459 0 5.657458v-5.657458zM5.657459 418.651934c0-5.657459 0 0 0 0-5.657459 0-5.657459 0 0 0zM5.657459 469.569061zM5.657459 537.458564zM22.629834 763.756906c-5.657459 0-5.657459 0 0 0-5.657459 0-5.657459 0 0 0-5.657459 5.657459-5.657459 5.657459 0 0 0 5.657459 0 5.657459 0 0zM147.093923 978.740331s0 5.657459 0 0c0 5.657459 5.657459 5.657459 0 0 5.657459 0 5.657459 0 0 0zM967.425414 990.055249zM497.856354 1012.685083c-5.657459 0-5.657459 0 0 0-5.657459 5.657459-5.657459 5.657459 0 0 0 5.657459 0 5.657459 0 0l5.657458 5.657458c0-5.657459-5.657459-5.657459-5.657458-5.657458z" fill="#30A8FE" p-id="3060"></path></svg>